%TF.GenerationSoftware,KiCad,Pcbnew,(5.1.10-1-10_14)*%
%TF.CreationDate,2023-04-29T19:49:45+08:00*%
%TF.ProjectId,GB_DevCartExtender_Mainboard,47425f44-6576-4436-9172-74457874656e,1.0*%
%TF.SameCoordinates,Original*%
%TF.FileFunction,Soldermask,Bot*%
%TF.FilePolarity,Negative*%
%FSLAX46Y46*%
G04 Gerber Fmt 4.6, Leading zero omitted, Abs format (unit mm)*
G04 Created by KiCad (PCBNEW (5.1.10-1-10_14)) date 2023-04-29 19:49:45*
%MOMM*%
%LPD*%
G01*
G04 APERTURE LIST*
%ADD10C,0.150000*%
%ADD11O,1.700000X1.700000*%
%ADD12R,1.700000X1.700000*%
G04 APERTURE END LIST*
D10*
X108360595Y-129740000D02*
X108455833Y-129692380D01*
X108598690Y-129692380D01*
X108741547Y-129740000D01*
X108836785Y-129835238D01*
X108884404Y-129930476D01*
X108932023Y-130120952D01*
X108932023Y-130263809D01*
X108884404Y-130454285D01*
X108836785Y-130549523D01*
X108741547Y-130644761D01*
X108598690Y-130692380D01*
X108503452Y-130692380D01*
X108360595Y-130644761D01*
X108312976Y-130597142D01*
X108312976Y-130263809D01*
X108503452Y-130263809D01*
X107455833Y-130692380D02*
X107455833Y-130168571D01*
X107503452Y-130073333D01*
X107598690Y-130025714D01*
X107789166Y-130025714D01*
X107884404Y-130073333D01*
X107455833Y-130644761D02*
X107551071Y-130692380D01*
X107789166Y-130692380D01*
X107884404Y-130644761D01*
X107932023Y-130549523D01*
X107932023Y-130454285D01*
X107884404Y-130359047D01*
X107789166Y-130311428D01*
X107551071Y-130311428D01*
X107455833Y-130263809D01*
X106979642Y-130692380D02*
X106979642Y-130025714D01*
X106979642Y-130120952D02*
X106932023Y-130073333D01*
X106836785Y-130025714D01*
X106693928Y-130025714D01*
X106598690Y-130073333D01*
X106551071Y-130168571D01*
X106551071Y-130692380D01*
X106551071Y-130168571D02*
X106503452Y-130073333D01*
X106408214Y-130025714D01*
X106265357Y-130025714D01*
X106170119Y-130073333D01*
X106122500Y-130168571D01*
X106122500Y-130692380D01*
X105265357Y-130644761D02*
X105360595Y-130692380D01*
X105551071Y-130692380D01*
X105646309Y-130644761D01*
X105693928Y-130549523D01*
X105693928Y-130168571D01*
X105646309Y-130073333D01*
X105551071Y-130025714D01*
X105360595Y-130025714D01*
X105265357Y-130073333D01*
X105217738Y-130168571D01*
X105217738Y-130263809D01*
X105693928Y-130359047D01*
X104789166Y-130692380D02*
X104789166Y-129692380D01*
X104789166Y-130073333D02*
X104693928Y-130025714D01*
X104503452Y-130025714D01*
X104408214Y-130073333D01*
X104360595Y-130120952D01*
X104312976Y-130216190D01*
X104312976Y-130501904D01*
X104360595Y-130597142D01*
X104408214Y-130644761D01*
X104503452Y-130692380D01*
X104693928Y-130692380D01*
X104789166Y-130644761D01*
X103741547Y-130692380D02*
X103836785Y-130644761D01*
X103884404Y-130597142D01*
X103932023Y-130501904D01*
X103932023Y-130216190D01*
X103884404Y-130120952D01*
X103836785Y-130073333D01*
X103741547Y-130025714D01*
X103598690Y-130025714D01*
X103503452Y-130073333D01*
X103455833Y-130120952D01*
X103408214Y-130216190D01*
X103408214Y-130501904D01*
X103455833Y-130597142D01*
X103503452Y-130644761D01*
X103598690Y-130692380D01*
X103741547Y-130692380D01*
X103074880Y-130025714D02*
X102836785Y-130692380D01*
X102598690Y-130025714D02*
X102836785Y-130692380D01*
X102932023Y-130930476D01*
X102979642Y-130978095D01*
X103074880Y-131025714D01*
X101455833Y-130692380D02*
X101455833Y-129692380D01*
X101217738Y-129692380D01*
X101074880Y-129740000D01*
X100979642Y-129835238D01*
X100932023Y-129930476D01*
X100884404Y-130120952D01*
X100884404Y-130263809D01*
X100932023Y-130454285D01*
X100979642Y-130549523D01*
X101074880Y-130644761D01*
X101217738Y-130692380D01*
X101455833Y-130692380D01*
X100074880Y-130644761D02*
X100170119Y-130692380D01*
X100360595Y-130692380D01*
X100455833Y-130644761D01*
X100503452Y-130549523D01*
X100503452Y-130168571D01*
X100455833Y-130073333D01*
X100360595Y-130025714D01*
X100170119Y-130025714D01*
X100074880Y-130073333D01*
X100027261Y-130168571D01*
X100027261Y-130263809D01*
X100503452Y-130359047D01*
X99693928Y-130025714D02*
X99455833Y-130692380D01*
X99217738Y-130025714D01*
X98265357Y-130597142D02*
X98312976Y-130644761D01*
X98455833Y-130692380D01*
X98551071Y-130692380D01*
X98693928Y-130644761D01*
X98789166Y-130549523D01*
X98836785Y-130454285D01*
X98884404Y-130263809D01*
X98884404Y-130120952D01*
X98836785Y-129930476D01*
X98789166Y-129835238D01*
X98693928Y-129740000D01*
X98551071Y-129692380D01*
X98455833Y-129692380D01*
X98312976Y-129740000D01*
X98265357Y-129787619D01*
X97408214Y-130692380D02*
X97408214Y-130168571D01*
X97455833Y-130073333D01*
X97551071Y-130025714D01*
X97741547Y-130025714D01*
X97836785Y-130073333D01*
X97408214Y-130644761D02*
X97503452Y-130692380D01*
X97741547Y-130692380D01*
X97836785Y-130644761D01*
X97884404Y-130549523D01*
X97884404Y-130454285D01*
X97836785Y-130359047D01*
X97741547Y-130311428D01*
X97503452Y-130311428D01*
X97408214Y-130263809D01*
X96932023Y-130692380D02*
X96932023Y-130025714D01*
X96932023Y-130216190D02*
X96884404Y-130120952D01*
X96836785Y-130073333D01*
X96741547Y-130025714D01*
X96646309Y-130025714D01*
X96455833Y-130025714D02*
X96074880Y-130025714D01*
X96312976Y-129692380D02*
X96312976Y-130549523D01*
X96265357Y-130644761D01*
X96170119Y-130692380D01*
X96074880Y-130692380D01*
X94979642Y-130168571D02*
X94646309Y-130168571D01*
X94503452Y-130692380D02*
X94979642Y-130692380D01*
X94979642Y-129692380D01*
X94503452Y-129692380D01*
X94170119Y-130692380D02*
X93646309Y-130025714D01*
X94170119Y-130025714D02*
X93646309Y-130692380D01*
X93408214Y-130025714D02*
X93027261Y-130025714D01*
X93265357Y-129692380D02*
X93265357Y-130549523D01*
X93217738Y-130644761D01*
X93122500Y-130692380D01*
X93027261Y-130692380D01*
X92312976Y-130644761D02*
X92408214Y-130692380D01*
X92598690Y-130692380D01*
X92693928Y-130644761D01*
X92741547Y-130549523D01*
X92741547Y-130168571D01*
X92693928Y-130073333D01*
X92598690Y-130025714D01*
X92408214Y-130025714D01*
X92312976Y-130073333D01*
X92265357Y-130168571D01*
X92265357Y-130263809D01*
X92741547Y-130359047D01*
X91836785Y-130025714D02*
X91836785Y-130692380D01*
X91836785Y-130120952D02*
X91789166Y-130073333D01*
X91693928Y-130025714D01*
X91551071Y-130025714D01*
X91455833Y-130073333D01*
X91408214Y-130168571D01*
X91408214Y-130692380D01*
X90503452Y-130692380D02*
X90503452Y-129692380D01*
X90503452Y-130644761D02*
X90598690Y-130692380D01*
X90789166Y-130692380D01*
X90884404Y-130644761D01*
X90932023Y-130597142D01*
X90979642Y-130501904D01*
X90979642Y-130216190D01*
X90932023Y-130120952D01*
X90884404Y-130073333D01*
X90789166Y-130025714D01*
X90598690Y-130025714D01*
X90503452Y-130073333D01*
X89646309Y-130644761D02*
X89741547Y-130692380D01*
X89932023Y-130692380D01*
X90027261Y-130644761D01*
X90074880Y-130549523D01*
X90074880Y-130168571D01*
X90027261Y-130073333D01*
X89932023Y-130025714D01*
X89741547Y-130025714D01*
X89646309Y-130073333D01*
X89598690Y-130168571D01*
X89598690Y-130263809D01*
X90074880Y-130359047D01*
X89170119Y-130692380D02*
X89170119Y-130025714D01*
X89170119Y-130216190D02*
X89122500Y-130120952D01*
X89074880Y-130073333D01*
X88979642Y-130025714D01*
X88884404Y-130025714D01*
X87884404Y-130025714D02*
X87646309Y-130692380D01*
X87408214Y-130025714D01*
X86503452Y-130692380D02*
X87074880Y-130692380D01*
X86789166Y-130692380D02*
X86789166Y-129692380D01*
X86884404Y-129835238D01*
X86979642Y-129930476D01*
X87074880Y-129978095D01*
X86074880Y-130597142D02*
X86027261Y-130644761D01*
X86074880Y-130692380D01*
X86122500Y-130644761D01*
X86074880Y-130597142D01*
X86074880Y-130692380D01*
X85408214Y-129692380D02*
X85312976Y-129692380D01*
X85217738Y-129740000D01*
X85170119Y-129787619D01*
X85122500Y-129882857D01*
X85074880Y-130073333D01*
X85074880Y-130311428D01*
X85122500Y-130501904D01*
X85170119Y-130597142D01*
X85217738Y-130644761D01*
X85312976Y-130692380D01*
X85408214Y-130692380D01*
X85503452Y-130644761D01*
X85551071Y-130597142D01*
X85598690Y-130501904D01*
X85646309Y-130311428D01*
X85646309Y-130073333D01*
X85598690Y-129882857D01*
X85551071Y-129787619D01*
X85503452Y-129740000D01*
X85408214Y-129692380D01*
X108884404Y-132342380D02*
X108884404Y-131342380D01*
X108455833Y-132342380D02*
X108455833Y-131818571D01*
X108503452Y-131723333D01*
X108598690Y-131675714D01*
X108741547Y-131675714D01*
X108836785Y-131723333D01*
X108884404Y-131770952D01*
X108122500Y-131675714D02*
X107741547Y-131675714D01*
X107979642Y-131342380D02*
X107979642Y-132199523D01*
X107932023Y-132294761D01*
X107836785Y-132342380D01*
X107741547Y-132342380D01*
X107551071Y-131675714D02*
X107170119Y-131675714D01*
X107408214Y-131342380D02*
X107408214Y-132199523D01*
X107360595Y-132294761D01*
X107265357Y-132342380D01*
X107170119Y-132342380D01*
X106836785Y-131675714D02*
X106836785Y-132675714D01*
X106836785Y-131723333D02*
X106741547Y-131675714D01*
X106551071Y-131675714D01*
X106455833Y-131723333D01*
X106408214Y-131770952D01*
X106360595Y-131866190D01*
X106360595Y-132151904D01*
X106408214Y-132247142D01*
X106455833Y-132294761D01*
X106551071Y-132342380D01*
X106741547Y-132342380D01*
X106836785Y-132294761D01*
X105979642Y-132294761D02*
X105884404Y-132342380D01*
X105693928Y-132342380D01*
X105598690Y-132294761D01*
X105551071Y-132199523D01*
X105551071Y-132151904D01*
X105598690Y-132056666D01*
X105693928Y-132009047D01*
X105836785Y-132009047D01*
X105932023Y-131961428D01*
X105979642Y-131866190D01*
X105979642Y-131818571D01*
X105932023Y-131723333D01*
X105836785Y-131675714D01*
X105693928Y-131675714D01*
X105598690Y-131723333D01*
X105122500Y-132247142D02*
X105074880Y-132294761D01*
X105122500Y-132342380D01*
X105170119Y-132294761D01*
X105122500Y-132247142D01*
X105122500Y-132342380D01*
X105122500Y-131723333D02*
X105074880Y-131770952D01*
X105122500Y-131818571D01*
X105170119Y-131770952D01*
X105122500Y-131723333D01*
X105122500Y-131818571D01*
X103932023Y-131294761D02*
X104789166Y-132580476D01*
X102884404Y-131294761D02*
X103741547Y-132580476D01*
X102122500Y-131675714D02*
X102122500Y-132485238D01*
X102170119Y-132580476D01*
X102217738Y-132628095D01*
X102312976Y-132675714D01*
X102455833Y-132675714D01*
X102551071Y-132628095D01*
X102122500Y-132294761D02*
X102217738Y-132342380D01*
X102408214Y-132342380D01*
X102503452Y-132294761D01*
X102551071Y-132247142D01*
X102598690Y-132151904D01*
X102598690Y-131866190D01*
X102551071Y-131770952D01*
X102503452Y-131723333D01*
X102408214Y-131675714D01*
X102217738Y-131675714D01*
X102122500Y-131723333D01*
X101646309Y-132342380D02*
X101646309Y-131675714D01*
X101646309Y-131342380D02*
X101693928Y-131390000D01*
X101646309Y-131437619D01*
X101598690Y-131390000D01*
X101646309Y-131342380D01*
X101646309Y-131437619D01*
X101312976Y-131675714D02*
X100932023Y-131675714D01*
X101170119Y-131342380D02*
X101170119Y-132199523D01*
X101122500Y-132294761D01*
X101027261Y-132342380D01*
X100932023Y-132342380D01*
X100598690Y-132342380D02*
X100598690Y-131342380D01*
X100170119Y-132342380D02*
X100170119Y-131818571D01*
X100217738Y-131723333D01*
X100312976Y-131675714D01*
X100455833Y-131675714D01*
X100551071Y-131723333D01*
X100598690Y-131770952D01*
X99265357Y-131675714D02*
X99265357Y-132342380D01*
X99693928Y-131675714D02*
X99693928Y-132199523D01*
X99646309Y-132294761D01*
X99551071Y-132342380D01*
X99408214Y-132342380D01*
X99312976Y-132294761D01*
X99265357Y-132247142D01*
X98789166Y-132342380D02*
X98789166Y-131342380D01*
X98789166Y-131723333D02*
X98693928Y-131675714D01*
X98503452Y-131675714D01*
X98408214Y-131723333D01*
X98360595Y-131770952D01*
X98312976Y-131866190D01*
X98312976Y-132151904D01*
X98360595Y-132247142D01*
X98408214Y-132294761D01*
X98503452Y-132342380D01*
X98693928Y-132342380D01*
X98789166Y-132294761D01*
X97884404Y-132247142D02*
X97836785Y-132294761D01*
X97884404Y-132342380D01*
X97932023Y-132294761D01*
X97884404Y-132247142D01*
X97884404Y-132342380D01*
X96979642Y-132294761D02*
X97074880Y-132342380D01*
X97265357Y-132342380D01*
X97360595Y-132294761D01*
X97408214Y-132247142D01*
X97455833Y-132151904D01*
X97455833Y-131866190D01*
X97408214Y-131770952D01*
X97360595Y-131723333D01*
X97265357Y-131675714D01*
X97074880Y-131675714D01*
X96979642Y-131723333D01*
X96408214Y-132342380D02*
X96503452Y-132294761D01*
X96551071Y-132247142D01*
X96598690Y-132151904D01*
X96598690Y-131866190D01*
X96551071Y-131770952D01*
X96503452Y-131723333D01*
X96408214Y-131675714D01*
X96265357Y-131675714D01*
X96170119Y-131723333D01*
X96122500Y-131770952D01*
X96074880Y-131866190D01*
X96074880Y-132151904D01*
X96122500Y-132247142D01*
X96170119Y-132294761D01*
X96265357Y-132342380D01*
X96408214Y-132342380D01*
X95646309Y-132342380D02*
X95646309Y-131675714D01*
X95646309Y-131770952D02*
X95598690Y-131723333D01*
X95503452Y-131675714D01*
X95360595Y-131675714D01*
X95265357Y-131723333D01*
X95217738Y-131818571D01*
X95217738Y-132342380D01*
X95217738Y-131818571D02*
X95170119Y-131723333D01*
X95074880Y-131675714D01*
X94932023Y-131675714D01*
X94836785Y-131723333D01*
X94789166Y-131818571D01*
X94789166Y-132342380D01*
X93598690Y-131294761D02*
X94455833Y-132580476D01*
X93312976Y-132294761D02*
X93170119Y-132342380D01*
X92932023Y-132342380D01*
X92836785Y-132294761D01*
X92789166Y-132247142D01*
X92741547Y-132151904D01*
X92741547Y-132056666D01*
X92789166Y-131961428D01*
X92836785Y-131913809D01*
X92932023Y-131866190D01*
X93122500Y-131818571D01*
X93217738Y-131770952D01*
X93265357Y-131723333D01*
X93312976Y-131628095D01*
X93312976Y-131532857D01*
X93265357Y-131437619D01*
X93217738Y-131390000D01*
X93122500Y-131342380D01*
X92884404Y-131342380D01*
X92741547Y-131390000D01*
X92122500Y-131342380D02*
X91932023Y-131342380D01*
X91836785Y-131390000D01*
X91741547Y-131485238D01*
X91693928Y-131675714D01*
X91693928Y-132009047D01*
X91741547Y-132199523D01*
X91836785Y-132294761D01*
X91932023Y-132342380D01*
X92122500Y-132342380D01*
X92217738Y-132294761D01*
X92312976Y-132199523D01*
X92360595Y-132009047D01*
X92360595Y-131675714D01*
X92312976Y-131485238D01*
X92217738Y-131390000D01*
X92122500Y-131342380D01*
X91265357Y-132342380D02*
X91265357Y-131342380D01*
X90693928Y-132342380D01*
X90693928Y-131342380D01*
X90217738Y-132342380D02*
X90217738Y-131342380D01*
X89170119Y-132247142D02*
X89217738Y-132294761D01*
X89360595Y-132342380D01*
X89455833Y-132342380D01*
X89598690Y-132294761D01*
X89693928Y-132199523D01*
X89741547Y-132104285D01*
X89789166Y-131913809D01*
X89789166Y-131770952D01*
X89741547Y-131580476D01*
X89693928Y-131485238D01*
X89598690Y-131390000D01*
X89455833Y-131342380D01*
X89360595Y-131342380D01*
X89217738Y-131390000D01*
X89170119Y-131437619D01*
X88836785Y-131342380D02*
X88217738Y-131342380D01*
X88551071Y-131723333D01*
X88408214Y-131723333D01*
X88312976Y-131770952D01*
X88265357Y-131818571D01*
X88217738Y-131913809D01*
X88217738Y-132151904D01*
X88265357Y-132247142D01*
X88312976Y-132294761D01*
X88408214Y-132342380D01*
X88693928Y-132342380D01*
X88789166Y-132294761D01*
X88836785Y-132247142D01*
X87789166Y-132342380D02*
X87789166Y-131342380D01*
X87551071Y-131342380D01*
X87408214Y-131390000D01*
X87312976Y-131485238D01*
X87265357Y-131580476D01*
X87217738Y-131770952D01*
X87217738Y-131913809D01*
X87265357Y-132104285D01*
X87312976Y-132199523D01*
X87408214Y-132294761D01*
X87551071Y-132342380D01*
X87789166Y-132342380D01*
X86074880Y-131294761D02*
X86932023Y-132580476D01*
X85312976Y-131675714D02*
X85312976Y-132485238D01*
X85360595Y-132580476D01*
X85408214Y-132628095D01*
X85503452Y-132675714D01*
X85646309Y-132675714D01*
X85741547Y-132628095D01*
X85312976Y-132294761D02*
X85408214Y-132342380D01*
X85598690Y-132342380D01*
X85693928Y-132294761D01*
X85741547Y-132247142D01*
X85789166Y-132151904D01*
X85789166Y-131866190D01*
X85741547Y-131770952D01*
X85693928Y-131723333D01*
X85598690Y-131675714D01*
X85408214Y-131675714D01*
X85312976Y-131723333D01*
X84408214Y-132342380D02*
X84408214Y-131818571D01*
X84455833Y-131723333D01*
X84551071Y-131675714D01*
X84741547Y-131675714D01*
X84836785Y-131723333D01*
X84408214Y-132294761D02*
X84503452Y-132342380D01*
X84741547Y-132342380D01*
X84836785Y-132294761D01*
X84884404Y-132199523D01*
X84884404Y-132104285D01*
X84836785Y-132009047D01*
X84741547Y-131961428D01*
X84503452Y-131961428D01*
X84408214Y-131913809D01*
X83932023Y-132342380D02*
X83932023Y-131675714D01*
X83932023Y-131770952D02*
X83884404Y-131723333D01*
X83789166Y-131675714D01*
X83646309Y-131675714D01*
X83551071Y-131723333D01*
X83503452Y-131818571D01*
X83503452Y-132342380D01*
X83503452Y-131818571D02*
X83455833Y-131723333D01*
X83360595Y-131675714D01*
X83217738Y-131675714D01*
X83122500Y-131723333D01*
X83074880Y-131818571D01*
X83074880Y-132342380D01*
X82217738Y-132294761D02*
X82312976Y-132342380D01*
X82503452Y-132342380D01*
X82598690Y-132294761D01*
X82646309Y-132199523D01*
X82646309Y-131818571D01*
X82598690Y-131723333D01*
X82503452Y-131675714D01*
X82312976Y-131675714D01*
X82217738Y-131723333D01*
X82170119Y-131818571D01*
X82170119Y-131913809D01*
X82646309Y-132009047D01*
X81741547Y-132342380D02*
X81741547Y-131342380D01*
X81741547Y-131723333D02*
X81646309Y-131675714D01*
X81455833Y-131675714D01*
X81360595Y-131723333D01*
X81312976Y-131770952D01*
X81265357Y-131866190D01*
X81265357Y-132151904D01*
X81312976Y-132247142D01*
X81360595Y-132294761D01*
X81455833Y-132342380D01*
X81646309Y-132342380D01*
X81741547Y-132294761D01*
X80693928Y-132342380D02*
X80789166Y-132294761D01*
X80836785Y-132247142D01*
X80884404Y-132151904D01*
X80884404Y-131866190D01*
X80836785Y-131770952D01*
X80789166Y-131723333D01*
X80693928Y-131675714D01*
X80551071Y-131675714D01*
X80455833Y-131723333D01*
X80408214Y-131770952D01*
X80360595Y-131866190D01*
X80360595Y-132151904D01*
X80408214Y-132247142D01*
X80455833Y-132294761D01*
X80551071Y-132342380D01*
X80693928Y-132342380D01*
X80027261Y-131675714D02*
X79789166Y-132342380D01*
X79551071Y-131675714D02*
X79789166Y-132342380D01*
X79884404Y-132580476D01*
X79932023Y-132628095D01*
X80027261Y-132675714D01*
X79170119Y-131961428D02*
X78408214Y-131961428D01*
X77503452Y-132342380D02*
X77503452Y-131342380D01*
X77503452Y-132294761D02*
X77598690Y-132342380D01*
X77789166Y-132342380D01*
X77884404Y-132294761D01*
X77932023Y-132247142D01*
X77979642Y-132151904D01*
X77979642Y-131866190D01*
X77932023Y-131770952D01*
X77884404Y-131723333D01*
X77789166Y-131675714D01*
X77598690Y-131675714D01*
X77503452Y-131723333D01*
X76646309Y-132294761D02*
X76741547Y-132342380D01*
X76932023Y-132342380D01*
X77027261Y-132294761D01*
X77074880Y-132199523D01*
X77074880Y-131818571D01*
X77027261Y-131723333D01*
X76932023Y-131675714D01*
X76741547Y-131675714D01*
X76646309Y-131723333D01*
X76598690Y-131818571D01*
X76598690Y-131913809D01*
X77074880Y-132009047D01*
X76265357Y-131675714D02*
X76027261Y-132342380D01*
X75789166Y-131675714D01*
X74979642Y-132294761D02*
X75074880Y-132342380D01*
X75265357Y-132342380D01*
X75360595Y-132294761D01*
X75408214Y-132247142D01*
X75455833Y-132151904D01*
X75455833Y-131866190D01*
X75408214Y-131770952D01*
X75360595Y-131723333D01*
X75265357Y-131675714D01*
X75074880Y-131675714D01*
X74979642Y-131723333D01*
X74122500Y-132342380D02*
X74122500Y-131818571D01*
X74170119Y-131723333D01*
X74265357Y-131675714D01*
X74455833Y-131675714D01*
X74551071Y-131723333D01*
X74122500Y-132294761D02*
X74217738Y-132342380D01*
X74455833Y-132342380D01*
X74551071Y-132294761D01*
X74598690Y-132199523D01*
X74598690Y-132104285D01*
X74551071Y-132009047D01*
X74455833Y-131961428D01*
X74217738Y-131961428D01*
X74122500Y-131913809D01*
X73646309Y-132342380D02*
X73646309Y-131675714D01*
X73646309Y-131866190D02*
X73598690Y-131770952D01*
X73551071Y-131723333D01*
X73455833Y-131675714D01*
X73360595Y-131675714D01*
X73170119Y-131675714D02*
X72789166Y-131675714D01*
X73027261Y-131342380D02*
X73027261Y-132199523D01*
X72979642Y-132294761D01*
X72884404Y-132342380D01*
X72789166Y-132342380D01*
X72074880Y-132294761D02*
X72170119Y-132342380D01*
X72360595Y-132342380D01*
X72455833Y-132294761D01*
X72503452Y-132199523D01*
X72503452Y-131818571D01*
X72455833Y-131723333D01*
X72360595Y-131675714D01*
X72170119Y-131675714D01*
X72074880Y-131723333D01*
X72027261Y-131818571D01*
X72027261Y-131913809D01*
X72503452Y-132009047D01*
X71693928Y-132342380D02*
X71170119Y-131675714D01*
X71693928Y-131675714D02*
X71170119Y-132342380D01*
X70932023Y-131675714D02*
X70551071Y-131675714D01*
X70789166Y-131342380D02*
X70789166Y-132199523D01*
X70741547Y-132294761D01*
X70646309Y-132342380D01*
X70551071Y-132342380D01*
X69836785Y-132294761D02*
X69932023Y-132342380D01*
X70122500Y-132342380D01*
X70217738Y-132294761D01*
X70265357Y-132199523D01*
X70265357Y-131818571D01*
X70217738Y-131723333D01*
X70122500Y-131675714D01*
X69932023Y-131675714D01*
X69836785Y-131723333D01*
X69789166Y-131818571D01*
X69789166Y-131913809D01*
X70265357Y-132009047D01*
X69360595Y-131675714D02*
X69360595Y-132342380D01*
X69360595Y-131770952D02*
X69312976Y-131723333D01*
X69217738Y-131675714D01*
X69074880Y-131675714D01*
X68979642Y-131723333D01*
X68932023Y-131818571D01*
X68932023Y-132342380D01*
X68027261Y-132342380D02*
X68027261Y-131342380D01*
X68027261Y-132294761D02*
X68122500Y-132342380D01*
X68312976Y-132342380D01*
X68408214Y-132294761D01*
X68455833Y-132247142D01*
X68503452Y-132151904D01*
X68503452Y-131866190D01*
X68455833Y-131770952D01*
X68408214Y-131723333D01*
X68312976Y-131675714D01*
X68122500Y-131675714D01*
X68027261Y-131723333D01*
X67170119Y-132294761D02*
X67265357Y-132342380D01*
X67455833Y-132342380D01*
X67551071Y-132294761D01*
X67598690Y-132199523D01*
X67598690Y-131818571D01*
X67551071Y-131723333D01*
X67455833Y-131675714D01*
X67265357Y-131675714D01*
X67170119Y-131723333D01*
X67122500Y-131818571D01*
X67122500Y-131913809D01*
X67598690Y-132009047D01*
X66693928Y-132342380D02*
X66693928Y-131675714D01*
X66693928Y-131866190D02*
X66646309Y-131770952D01*
X66598690Y-131723333D01*
X66503452Y-131675714D01*
X66408214Y-131675714D01*
X108884404Y-133992380D02*
X108884404Y-132992380D01*
X108646309Y-132992380D01*
X108503452Y-133040000D01*
X108408214Y-133135238D01*
X108360595Y-133230476D01*
X108312976Y-133420952D01*
X108312976Y-133563809D01*
X108360595Y-133754285D01*
X108408214Y-133849523D01*
X108503452Y-133944761D01*
X108646309Y-133992380D01*
X108884404Y-133992380D01*
X107503452Y-133944761D02*
X107598690Y-133992380D01*
X107789166Y-133992380D01*
X107884404Y-133944761D01*
X107932023Y-133849523D01*
X107932023Y-133468571D01*
X107884404Y-133373333D01*
X107789166Y-133325714D01*
X107598690Y-133325714D01*
X107503452Y-133373333D01*
X107455833Y-133468571D01*
X107455833Y-133563809D01*
X107932023Y-133659047D01*
X107074880Y-133944761D02*
X106979642Y-133992380D01*
X106789166Y-133992380D01*
X106693928Y-133944761D01*
X106646309Y-133849523D01*
X106646309Y-133801904D01*
X106693928Y-133706666D01*
X106789166Y-133659047D01*
X106932023Y-133659047D01*
X107027261Y-133611428D01*
X107074880Y-133516190D01*
X107074880Y-133468571D01*
X107027261Y-133373333D01*
X106932023Y-133325714D01*
X106789166Y-133325714D01*
X106693928Y-133373333D01*
X106217738Y-133992380D02*
X106217738Y-133325714D01*
X106217738Y-132992380D02*
X106265357Y-133040000D01*
X106217738Y-133087619D01*
X106170119Y-133040000D01*
X106217738Y-132992380D01*
X106217738Y-133087619D01*
X105312976Y-133325714D02*
X105312976Y-134135238D01*
X105360595Y-134230476D01*
X105408214Y-134278095D01*
X105503452Y-134325714D01*
X105646309Y-134325714D01*
X105741547Y-134278095D01*
X105312976Y-133944761D02*
X105408214Y-133992380D01*
X105598690Y-133992380D01*
X105693928Y-133944761D01*
X105741547Y-133897142D01*
X105789166Y-133801904D01*
X105789166Y-133516190D01*
X105741547Y-133420952D01*
X105693928Y-133373333D01*
X105598690Y-133325714D01*
X105408214Y-133325714D01*
X105312976Y-133373333D01*
X104836785Y-133325714D02*
X104836785Y-133992380D01*
X104836785Y-133420952D02*
X104789166Y-133373333D01*
X104693928Y-133325714D01*
X104551071Y-133325714D01*
X104455833Y-133373333D01*
X104408214Y-133468571D01*
X104408214Y-133992380D01*
X103551071Y-133944761D02*
X103646309Y-133992380D01*
X103836785Y-133992380D01*
X103932023Y-133944761D01*
X103979642Y-133849523D01*
X103979642Y-133468571D01*
X103932023Y-133373333D01*
X103836785Y-133325714D01*
X103646309Y-133325714D01*
X103551071Y-133373333D01*
X103503452Y-133468571D01*
X103503452Y-133563809D01*
X103979642Y-133659047D01*
X102646309Y-133992380D02*
X102646309Y-132992380D01*
X102646309Y-133944761D02*
X102741547Y-133992380D01*
X102932023Y-133992380D01*
X103027261Y-133944761D01*
X103074880Y-133897142D01*
X103122500Y-133801904D01*
X103122500Y-133516190D01*
X103074880Y-133420952D01*
X103027261Y-133373333D01*
X102932023Y-133325714D01*
X102741547Y-133325714D01*
X102646309Y-133373333D01*
X101408214Y-133992380D02*
X101408214Y-133325714D01*
X101408214Y-132992380D02*
X101455833Y-133040000D01*
X101408214Y-133087619D01*
X101360595Y-133040000D01*
X101408214Y-132992380D01*
X101408214Y-133087619D01*
X100932023Y-133325714D02*
X100932023Y-133992380D01*
X100932023Y-133420952D02*
X100884404Y-133373333D01*
X100789166Y-133325714D01*
X100646309Y-133325714D01*
X100551071Y-133373333D01*
X100503452Y-133468571D01*
X100503452Y-133992380D01*
X99312976Y-133944761D02*
X99170119Y-133992380D01*
X98932023Y-133992380D01*
X98836785Y-133944761D01*
X98789166Y-133897142D01*
X98741547Y-133801904D01*
X98741547Y-133706666D01*
X98789166Y-133611428D01*
X98836785Y-133563809D01*
X98932023Y-133516190D01*
X99122500Y-133468571D01*
X99217738Y-133420952D01*
X99265357Y-133373333D01*
X99312976Y-133278095D01*
X99312976Y-133182857D01*
X99265357Y-133087619D01*
X99217738Y-133040000D01*
X99122500Y-132992380D01*
X98884404Y-132992380D01*
X98741547Y-133040000D01*
X98312976Y-133992380D02*
X98312976Y-132992380D01*
X97884404Y-133992380D02*
X97884404Y-133468571D01*
X97932023Y-133373333D01*
X98027261Y-133325714D01*
X98170119Y-133325714D01*
X98265357Y-133373333D01*
X98312976Y-133420952D01*
X96979642Y-133992380D02*
X96979642Y-133468571D01*
X97027261Y-133373333D01*
X97122500Y-133325714D01*
X97312976Y-133325714D01*
X97408214Y-133373333D01*
X96979642Y-133944761D02*
X97074880Y-133992380D01*
X97312976Y-133992380D01*
X97408214Y-133944761D01*
X97455833Y-133849523D01*
X97455833Y-133754285D01*
X97408214Y-133659047D01*
X97312976Y-133611428D01*
X97074880Y-133611428D01*
X96979642Y-133563809D01*
X96503452Y-133325714D02*
X96503452Y-133992380D01*
X96503452Y-133420952D02*
X96455833Y-133373333D01*
X96360595Y-133325714D01*
X96217738Y-133325714D01*
X96122500Y-133373333D01*
X96074880Y-133468571D01*
X96074880Y-133992380D01*
X95170119Y-133325714D02*
X95170119Y-134135238D01*
X95217738Y-134230476D01*
X95265357Y-134278095D01*
X95360595Y-134325714D01*
X95503452Y-134325714D01*
X95598690Y-134278095D01*
X95170119Y-133944761D02*
X95265357Y-133992380D01*
X95455833Y-133992380D01*
X95551071Y-133944761D01*
X95598690Y-133897142D01*
X95646309Y-133801904D01*
X95646309Y-133516190D01*
X95598690Y-133420952D01*
X95551071Y-133373333D01*
X95455833Y-133325714D01*
X95265357Y-133325714D01*
X95170119Y-133373333D01*
X94693928Y-133992380D02*
X94693928Y-132992380D01*
X94265357Y-133992380D02*
X94265357Y-133468571D01*
X94312976Y-133373333D01*
X94408214Y-133325714D01*
X94551071Y-133325714D01*
X94646309Y-133373333D01*
X94693928Y-133420952D01*
X93360595Y-133992380D02*
X93360595Y-133468571D01*
X93408214Y-133373333D01*
X93503452Y-133325714D01*
X93693928Y-133325714D01*
X93789166Y-133373333D01*
X93360595Y-133944761D02*
X93455833Y-133992380D01*
X93693928Y-133992380D01*
X93789166Y-133944761D01*
X93836785Y-133849523D01*
X93836785Y-133754285D01*
X93789166Y-133659047D01*
X93693928Y-133611428D01*
X93455833Y-133611428D01*
X93360595Y-133563809D01*
X92884404Y-133992380D02*
X92884404Y-133325714D01*
X92884404Y-132992380D02*
X92932023Y-133040000D01*
X92884404Y-133087619D01*
X92836785Y-133040000D01*
X92884404Y-132992380D01*
X92884404Y-133087619D01*
X92360595Y-133944761D02*
X92360595Y-133992380D01*
X92408214Y-134087619D01*
X92455833Y-134135238D01*
X91170119Y-133992380D02*
X91170119Y-132992380D01*
X91170119Y-133373333D02*
X91074880Y-133325714D01*
X90884404Y-133325714D01*
X90789166Y-133373333D01*
X90741547Y-133420952D01*
X90693928Y-133516190D01*
X90693928Y-133801904D01*
X90741547Y-133897142D01*
X90789166Y-133944761D01*
X90884404Y-133992380D01*
X91074880Y-133992380D01*
X91170119Y-133944761D01*
X90360595Y-133325714D02*
X90122500Y-133992380D01*
X89884404Y-133325714D02*
X90122500Y-133992380D01*
X90217738Y-134230476D01*
X90265357Y-134278095D01*
X90360595Y-134325714D01*
X88789166Y-133944761D02*
X88646309Y-133992380D01*
X88408214Y-133992380D01*
X88312976Y-133944761D01*
X88265357Y-133897142D01*
X88217738Y-133801904D01*
X88217738Y-133706666D01*
X88265357Y-133611428D01*
X88312976Y-133563809D01*
X88408214Y-133516190D01*
X88598690Y-133468571D01*
X88693928Y-133420952D01*
X88741547Y-133373333D01*
X88789166Y-133278095D01*
X88789166Y-133182857D01*
X88741547Y-133087619D01*
X88693928Y-133040000D01*
X88598690Y-132992380D01*
X88360595Y-132992380D01*
X88217738Y-133040000D01*
X87598690Y-132992380D02*
X87408214Y-132992380D01*
X87312976Y-133040000D01*
X87217738Y-133135238D01*
X87170119Y-133325714D01*
X87170119Y-133659047D01*
X87217738Y-133849523D01*
X87312976Y-133944761D01*
X87408214Y-133992380D01*
X87598690Y-133992380D01*
X87693928Y-133944761D01*
X87789166Y-133849523D01*
X87836785Y-133659047D01*
X87836785Y-133325714D01*
X87789166Y-133135238D01*
X87693928Y-133040000D01*
X87598690Y-132992380D01*
X86741547Y-133992380D02*
X86741547Y-132992380D01*
X86170119Y-133992380D01*
X86170119Y-132992380D01*
X85693928Y-133992380D02*
X85693928Y-132992380D01*
X84646309Y-133897142D02*
X84693928Y-133944761D01*
X84836785Y-133992380D01*
X84932023Y-133992380D01*
X85074880Y-133944761D01*
X85170119Y-133849523D01*
X85217738Y-133754285D01*
X85265357Y-133563809D01*
X85265357Y-133420952D01*
X85217738Y-133230476D01*
X85170119Y-133135238D01*
X85074880Y-133040000D01*
X84932023Y-132992380D01*
X84836785Y-132992380D01*
X84693928Y-133040000D01*
X84646309Y-133087619D01*
X84312976Y-132992380D02*
X83693928Y-132992380D01*
X84027261Y-133373333D01*
X83884404Y-133373333D01*
X83789166Y-133420952D01*
X83741547Y-133468571D01*
X83693928Y-133563809D01*
X83693928Y-133801904D01*
X83741547Y-133897142D01*
X83789166Y-133944761D01*
X83884404Y-133992380D01*
X84170119Y-133992380D01*
X84265357Y-133944761D01*
X84312976Y-133897142D01*
X83265357Y-133992380D02*
X83265357Y-132992380D01*
X83027261Y-132992380D01*
X82884404Y-133040000D01*
X82789166Y-133135238D01*
X82741547Y-133230476D01*
X82693928Y-133420952D01*
X82693928Y-133563809D01*
X82741547Y-133754285D01*
X82789166Y-133849523D01*
X82884404Y-133944761D01*
X83027261Y-133992380D01*
X83265357Y-133992380D01*
X108932023Y-134737619D02*
X108884404Y-134690000D01*
X108789166Y-134642380D01*
X108551071Y-134642380D01*
X108455833Y-134690000D01*
X108408214Y-134737619D01*
X108360595Y-134832857D01*
X108360595Y-134928095D01*
X108408214Y-135070952D01*
X108979642Y-135642380D01*
X108360595Y-135642380D01*
X107741547Y-134642380D02*
X107646309Y-134642380D01*
X107551071Y-134690000D01*
X107503452Y-134737619D01*
X107455833Y-134832857D01*
X107408214Y-135023333D01*
X107408214Y-135261428D01*
X107455833Y-135451904D01*
X107503452Y-135547142D01*
X107551071Y-135594761D01*
X107646309Y-135642380D01*
X107741547Y-135642380D01*
X107836785Y-135594761D01*
X107884404Y-135547142D01*
X107932023Y-135451904D01*
X107979642Y-135261428D01*
X107979642Y-135023333D01*
X107932023Y-134832857D01*
X107884404Y-134737619D01*
X107836785Y-134690000D01*
X107741547Y-134642380D01*
X107027261Y-134737619D02*
X106979642Y-134690000D01*
X106884404Y-134642380D01*
X106646309Y-134642380D01*
X106551071Y-134690000D01*
X106503452Y-134737619D01*
X106455833Y-134832857D01*
X106455833Y-134928095D01*
X106503452Y-135070952D01*
X107074880Y-135642380D01*
X106455833Y-135642380D01*
X106122500Y-134642380D02*
X105503452Y-134642380D01*
X105836785Y-135023333D01*
X105693928Y-135023333D01*
X105598690Y-135070952D01*
X105551071Y-135118571D01*
X105503452Y-135213809D01*
X105503452Y-135451904D01*
X105551071Y-135547142D01*
X105598690Y-135594761D01*
X105693928Y-135642380D01*
X105979642Y-135642380D01*
X106074880Y-135594761D01*
X106122500Y-135547142D01*
X105074880Y-135547142D02*
X105027261Y-135594761D01*
X105074880Y-135642380D01*
X105122500Y-135594761D01*
X105074880Y-135547142D01*
X105074880Y-135642380D01*
X104646309Y-135356666D02*
X104170119Y-135356666D01*
X104741547Y-135642380D02*
X104408214Y-134642380D01*
X104074880Y-135642380D01*
X103741547Y-134975714D02*
X103741547Y-135975714D01*
X103741547Y-135023333D02*
X103646309Y-134975714D01*
X103455833Y-134975714D01*
X103360595Y-135023333D01*
X103312976Y-135070952D01*
X103265357Y-135166190D01*
X103265357Y-135451904D01*
X103312976Y-135547142D01*
X103360595Y-135594761D01*
X103455833Y-135642380D01*
X103646309Y-135642380D01*
X103741547Y-135594761D01*
X102836785Y-135642380D02*
X102836785Y-134975714D01*
X102836785Y-135166190D02*
X102789166Y-135070952D01*
X102741547Y-135023333D01*
X102646309Y-134975714D01*
X102551071Y-134975714D01*
X102217738Y-135547142D02*
X102170119Y-135594761D01*
X102217738Y-135642380D01*
X102265357Y-135594761D01*
X102217738Y-135547142D01*
X102217738Y-135642380D01*
X101789166Y-134737619D02*
X101741547Y-134690000D01*
X101646309Y-134642380D01*
X101408214Y-134642380D01*
X101312976Y-134690000D01*
X101265357Y-134737619D01*
X101217738Y-134832857D01*
X101217738Y-134928095D01*
X101265357Y-135070952D01*
X101836785Y-135642380D01*
X101217738Y-135642380D01*
X100741547Y-135642380D02*
X100551071Y-135642380D01*
X100455833Y-135594761D01*
X100408214Y-135547142D01*
X100312976Y-135404285D01*
X100265357Y-135213809D01*
X100265357Y-134832857D01*
X100312976Y-134737619D01*
X100360595Y-134690000D01*
X100455833Y-134642380D01*
X100646309Y-134642380D01*
X100741547Y-134690000D01*
X100789166Y-134737619D01*
X100836785Y-134832857D01*
X100836785Y-135070952D01*
X100789166Y-135166190D01*
X100741547Y-135213809D01*
X100646309Y-135261428D01*
X100455833Y-135261428D01*
X100360595Y-135213809D01*
X100312976Y-135166190D01*
X100265357Y-135070952D01*
D11*
%TO.C,J5*%
X108650000Y-76500000D03*
X108650000Y-73960000D03*
X106110000Y-76500000D03*
X106110000Y-73960000D03*
X103570000Y-76500000D03*
X103570000Y-73960000D03*
X101030000Y-76500000D03*
X101030000Y-73960000D03*
X98490000Y-76500000D03*
X98490000Y-73960000D03*
X95950000Y-76500000D03*
X95950000Y-73960000D03*
X93410000Y-76500000D03*
X93410000Y-73960000D03*
X90870000Y-76500000D03*
X90870000Y-73960000D03*
X88330000Y-76500000D03*
X88330000Y-73960000D03*
X85790000Y-76500000D03*
X85790000Y-73960000D03*
X83250000Y-76500000D03*
X83250000Y-73960000D03*
X80710000Y-76500000D03*
X80710000Y-73960000D03*
X78170000Y-76500000D03*
X78170000Y-73960000D03*
X75630000Y-76500000D03*
X75630000Y-73960000D03*
X73090000Y-76500000D03*
X73090000Y-73960000D03*
X70550000Y-76500000D03*
D12*
X70550000Y-73960000D03*
%TD*%
D11*
%TO.C,J4*%
X108650000Y-86660000D03*
X108650000Y-84120000D03*
X106110000Y-86660000D03*
X106110000Y-84120000D03*
X103570000Y-86660000D03*
X103570000Y-84120000D03*
X101030000Y-86660000D03*
X101030000Y-84120000D03*
X98490000Y-86660000D03*
X98490000Y-84120000D03*
X95950000Y-86660000D03*
X95950000Y-84120000D03*
X93410000Y-86660000D03*
X93410000Y-84120000D03*
X90870000Y-86660000D03*
X90870000Y-84120000D03*
X88330000Y-86660000D03*
X88330000Y-84120000D03*
X85790000Y-86660000D03*
X85790000Y-84120000D03*
X83250000Y-86660000D03*
X83250000Y-84120000D03*
X80710000Y-86660000D03*
X80710000Y-84120000D03*
X78170000Y-86660000D03*
X78170000Y-84120000D03*
X75630000Y-86660000D03*
X75630000Y-84120000D03*
X73090000Y-86660000D03*
X73090000Y-84120000D03*
X70550000Y-86660000D03*
D12*
X70550000Y-84120000D03*
%TD*%
M02*
