%TF.GenerationSoftware,KiCad,Pcbnew,(5.1.10-1-10_14)*%
%TF.CreationDate,2023-04-29T19:49:45+08:00*%
%TF.ProjectId,GB_DevCartExtender_Mainboard,47425f44-6576-4436-9172-74457874656e,1.0*%
%TF.SameCoordinates,Original*%
%TF.FileFunction,Soldermask,Top*%
%TF.FilePolarity,Negative*%
%FSLAX46Y46*%
G04 Gerber Fmt 4.6, Leading zero omitted, Abs format (unit mm)*
G04 Created by KiCad (PCBNEW (5.1.10-1-10_14)) date 2023-04-29 19:49:45*
%MOMM*%
%LPD*%
G01*
G04 APERTURE LIST*
%ADD10O,1.700000X1.700000*%
%ADD11R,1.700000X1.700000*%
%ADD12R,1.300000X6.000000*%
%ADD13R,1.000000X5.500000*%
G04 APERTURE END LIST*
D10*
%TO.C,J5*%
X108650000Y-76500000D03*
X108650000Y-73960000D03*
X106110000Y-76500000D03*
X106110000Y-73960000D03*
X103570000Y-76500000D03*
X103570000Y-73960000D03*
X101030000Y-76500000D03*
X101030000Y-73960000D03*
X98490000Y-76500000D03*
X98490000Y-73960000D03*
X95950000Y-76500000D03*
X95950000Y-73960000D03*
X93410000Y-76500000D03*
X93410000Y-73960000D03*
X90870000Y-76500000D03*
X90870000Y-73960000D03*
X88330000Y-76500000D03*
X88330000Y-73960000D03*
X85790000Y-76500000D03*
X85790000Y-73960000D03*
X83250000Y-76500000D03*
X83250000Y-73960000D03*
X80710000Y-76500000D03*
X80710000Y-73960000D03*
X78170000Y-76500000D03*
X78170000Y-73960000D03*
X75630000Y-76500000D03*
X75630000Y-73960000D03*
X73090000Y-76500000D03*
X73090000Y-73960000D03*
X70550000Y-76500000D03*
D11*
X70550000Y-73960000D03*
%TD*%
D10*
%TO.C,J4*%
X108650000Y-86660000D03*
X108650000Y-84120000D03*
X106110000Y-86660000D03*
X106110000Y-84120000D03*
X103570000Y-86660000D03*
X103570000Y-84120000D03*
X101030000Y-86660000D03*
X101030000Y-84120000D03*
X98490000Y-86660000D03*
X98490000Y-84120000D03*
X95950000Y-86660000D03*
X95950000Y-84120000D03*
X93410000Y-86660000D03*
X93410000Y-84120000D03*
X90870000Y-86660000D03*
X90870000Y-84120000D03*
X88330000Y-86660000D03*
X88330000Y-84120000D03*
X85790000Y-86660000D03*
X85790000Y-84120000D03*
X83250000Y-86660000D03*
X83250000Y-84120000D03*
X80710000Y-86660000D03*
X80710000Y-84120000D03*
X78170000Y-86660000D03*
X78170000Y-84120000D03*
X75630000Y-86660000D03*
X75630000Y-84120000D03*
X73090000Y-86660000D03*
X73090000Y-84120000D03*
X70550000Y-86660000D03*
D11*
X70550000Y-84120000D03*
%TD*%
D12*
%TO.C,J1*%
X113000000Y-151500000D03*
D13*
X111350000Y-151250000D03*
X109850000Y-151250000D03*
X108350000Y-151250000D03*
X106850000Y-151250000D03*
X105350000Y-151250000D03*
X103850000Y-151250000D03*
X102350000Y-151250000D03*
X100850000Y-151250000D03*
X99350000Y-151250000D03*
X97850000Y-151250000D03*
X96350000Y-151250000D03*
X94850000Y-151250000D03*
X93350000Y-151250000D03*
X91850000Y-151250000D03*
X90350000Y-151250000D03*
X88850000Y-151250000D03*
X87350000Y-151250000D03*
X85850000Y-151250000D03*
X84350000Y-151250000D03*
X82850000Y-151250000D03*
X81350000Y-151250000D03*
X79850000Y-151250000D03*
X78350000Y-151250000D03*
X76850000Y-151250000D03*
X75350000Y-151250000D03*
X73850000Y-151250000D03*
X72350000Y-151250000D03*
X70850000Y-151250000D03*
X69350000Y-151250000D03*
X67850000Y-151250000D03*
D12*
X66200000Y-151500000D03*
%TD*%
M02*
