M48
; DRILL file {KiCad (5.1.10-1-10_14)} date Saturday, April 29, 2023 at 07:49:48 PM
; FORMAT={-:-/ absolute / metric / decimal}
; #@! TF.CreationDate,2023-04-29T19:49:48+08:00
; #@! TF.GenerationSoftware,Kicad,Pcbnew,(5.1.10-1-10_14)
FMAT,2
METRIC
T1C0.400
T2C1.000
%
G90
G05
T1
X113.0Y-99.549
T2
X70.55Y-73.96
X70.55Y-76.5
X70.55Y-84.12
X70.55Y-86.66
X73.09Y-73.96
X73.09Y-76.5
X73.09Y-84.12
X73.09Y-86.66
X75.63Y-73.96
X75.63Y-76.5
X75.63Y-84.12
X75.63Y-86.66
X78.17Y-73.96
X78.17Y-76.5
X78.17Y-84.12
X78.17Y-86.66
X80.71Y-73.96
X80.71Y-76.5
X80.71Y-84.12
X80.71Y-86.66
X83.25Y-73.96
X83.25Y-76.5
X83.25Y-84.12
X83.25Y-86.66
X85.79Y-73.96
X85.79Y-76.5
X85.79Y-84.12
X85.79Y-86.66
X88.33Y-73.96
X88.33Y-76.5
X88.33Y-84.12
X88.33Y-86.66
X90.87Y-73.96
X90.87Y-76.5
X90.87Y-84.12
X90.87Y-86.66
X93.41Y-73.96
X93.41Y-76.5
X93.41Y-84.12
X93.41Y-86.66
X95.95Y-73.96
X95.95Y-76.5
X95.95Y-84.12
X95.95Y-86.66
X98.49Y-73.96
X98.49Y-76.5
X98.49Y-84.12
X98.49Y-86.66
X101.03Y-73.96
X101.03Y-76.5
X101.03Y-84.12
X101.03Y-86.66
X103.57Y-73.96
X103.57Y-76.5
X103.57Y-84.12
X103.57Y-86.66
X106.11Y-73.96
X106.11Y-76.5
X106.11Y-84.12
X106.11Y-86.66
X108.65Y-73.96
X108.65Y-76.5
X108.65Y-84.12
X108.65Y-86.66
T0
M30
